<svg xmlns="http://www.w3.org/2000/svg" width="620" height="4610" viewBox="0 0 620 4610" role="img" aria-labelledby="t d">
  <title id="t">三種尿路改道的日子：迴腸導管、原位新膀胱、輸尿管皮膚吻合，不畫高下</title>
  <desc id="d">示意圖，畫三種尿路改道的日子，三欄平列、順序不代表優劣。圖的最上面是指引自己的兩句原文：「Randomised controlled trials comparing conduit diversion with neobladder or continent cutaneous diversion have not been performed.」與「Currently, it is not possible to recommend a particular type of urinary diversion.」——沒有隨機試驗比較過三種改道，指引因此無法推薦其中任何一種；EAU 同時寫改道的方式不影響腫瘤結果，NICE 的措辭是選擇膀胱全切除的人要提供尿路造口或禁尿型改道，除非有認知功能障礙、腎功能受損或明顯腸道疾病這類強烈禁忌。第一欄是迴腸導管（肚皮上一個造口接尿袋）：EAU 形容它是「結果可預期」的成熟做法；30 天併發症 48%，以泌尿道感染、腎盂腎炎、輸尿管與迴腸接合處漏或狹窄為主；長期造口相關併發症最高到 24%；上泌尿道功能或形態變化最高到 30%；而它的晚期併發症在三種做法裡最少；要學的是造口與尿袋的照顧。第二欄是原位新膀胱（用腸子做一個袋子接回尿道，靠腹壓與放鬆括約肌排尿）：荷蘭、德國、西班牙的登記資料顯示男女各約一到兩成的人做這個；EAU 表列的新膀胱相關問題發生率 30% 到 64%；男性的前瞻評估顯示日間禁尿從術後三個月內的 59% 升到 12 到 18 個月時的 92%，夜間從 28% 升到 18 到 36 個月時的 51%；56 位女性新膀胱病人日間禁尿 70.4%、夜間 64.8%，但排空困難在女性特別常見——約三分之二需要自行導尿、將近 45% 完全無法自行排尿；要學的是定時排尿與（部分人）自行導尿。第三欄是輸尿管皮膚吻合（輸尿管直接接到肚皮）：EAU 寫它是最簡單的皮膚改道，手術時間、併發症率、失血、輸血率、加護病房停留與住院天數都比迴腸導管低；代價是輸尿管口徑小，造口狹窄與上行性泌尿道感染比用腸子做的造口多；對體弱者、或只有一顆腎而需要上泌尿道改道的人，它是首選；要學的是造口照顧以及導管更換的節奏。三欄底下標明：三欄的數字不是同一把尺——一欄報的是 30 天併發症，一欄報的是幾年後的禁尿率，一欄報的是跟另一種做法相比低的項目，它們不能互相相減，也不能排名。接著一格寫三段讀完會發現的事：最不像原本膀胱的那一種，晚期併發症最少；最像原本膀胱的那一種，夜間禁尿到一年半以上還只有一半；最簡單的那一種，是某些人的首選，而不是將就；所以這不是排名，是三組不同的日子。再下一格是長期的那張帳，三種做法一起算、不分欄：3,360 位因肌肉侵犯型膀胱癌接受膀胱全切除的人，29% 在 12 個月內進展到晚期慢性腎病；良性的輸尿管與腸道接合處狹窄最高到 20%；做腸道改道的人維生素 B12 偏低的比例 17%，EAU 建議每年驗一次；SEER 資料顯示膀胱全切除與骨折風險上升 21% 相關，推測與長期代謝性酸中毒和骨質流失有關，那是相關不是已經證明的因果；改道相關併發症在追蹤的前五年會偵測到 45%，一個 131 人的系列裡活過 15 年的人上升到 94%，15 年追蹤時 50% 出現上泌尿道變化、38% 有尿路結石；另有一份 1,383 人的回溯資料顯示迴腸導管與原位新膀胱在腎絲球過濾率下降的風險上沒有顯著差異，真正跟下降相關的是年齡與接合處狹窄。再下一格列出不必等下一次回診的訊號（沒有可引用的量化門檻，所以寫的是症狀不是數字）：發燒合併單側腰痛；造口的尿量突然變少或整天沒有尿；傷口或造口周圍一直滲出液體；做了新膀胱卻解不出尿而且腹脹——出現任何一樣，當天就聯絡手術團隊或回急診。同一格寫「怎麼選」比「選哪一種」更重要：EAU 記了讓病人在充分被告知之後做出改道的決定，與術後較少的決策後悔相關，而且「independent of the method selected」，跟最後選了哪一種無關；NICE 要求造口護理師在手術前後都要能談。最後一格列出兩句不准的讀法：「這三種有高下之分」與「照這張圖我就知道要選哪一種」。</desc>
  <defs><linearGradient id="bg" x1="0" y1="0" x2="1" y2="1"><stop stop-color="#F4EFE3"/><stop offset="1" stop-color="#E8E1D1"/></linearGradient><filter id="sh" x="-20%" y="-20%" width="140%" height="140%"><feDropShadow dx="0" dy="8" stdDeviation="12" flood-color="#0B2832" flood-opacity=".13"/></filter><pattern id="hatch" width="8" height="8" patternUnits="userSpaceOnUse" patternTransform="rotate(45)"><line x1="0" y1="0" x2="0" y2="8" stroke="#B9AE94" stroke-width="2" opacity="0.55"/></pattern><pattern id="hatchR" width="8" height="8" patternUnits="userSpaceOnUse" patternTransform="rotate(135)"><line x1="0" y1="0" x2="0" y2="8" stroke="#B04A4A" stroke-width="2" opacity="0.45"/></pattern><style>.z{font-family:"Noto Sans TC","Noto Sans CJK TC","PingFang TC","Microsoft JhengHei",sans-serif}.r{font-family:"Noto Serif TC","Noto Serif CJK TC","PingFang TC","Microsoft JhengHei",serif}</style></defs>
  <rect width="620" height="4610" rx="36" fill="url(#bg)"/>
  <g class="z">
<text x="40" y="66" font-size="16" fill="#A98722" font-weight="800" letter-spacing="3px">URINARY DIVERSION - THREE DIFFERENT DAYS,</text>
<text x="40" y="90" font-size="16" fill="#A98722" font-weight="800" letter-spacing="3px">NOT A RANKING</text>
<text x="40" y="142" font-size="40" fill="#123641" font-weight="800" class="r">三種尿路改道的日子，各自長</text>
<text x="40" y="192.4" font-size="40" fill="#123641" font-weight="800" class="r">什麼樣——這張圖沒有排名，指</text>
<text x="40" y="242.8" font-size="40" fill="#123641" font-weight="800" class="r">引自己也不排</text>
<text x="40" y="303.2" font-size="19" fill="#527078">被告知要拿掉膀胱的人，第一個問題幾乎都不是存活率，是「那</text>
<text x="40" y="331.7" font-size="19" fill="#527078">以後尿怎麼辦」。這張圖把三種改道的日子攤開：要學什麼、併</text>
<text x="40" y="360.2" font-size="19" fill="#527078">發症的量級，以及每一個數字出自哪一群人。</text>
<text x="40" y="392.7" font-size="19" fill="#527078">三欄的數字不是同一把尺——每一欄報的項目不一樣，沒有任何一</text>
<text x="40" y="421.2" font-size="19" fill="#527078">組可以互相相減，也沒有任何一欄可以排在另一欄前面。</text>
<rect x="40" y="469.7" width="540" height="86" rx="16" fill="#E3E8F6" stroke="#5C77C4" stroke-width="2.5"/>
<text x="66" y="499.7" font-size="16" fill="#5C77C4" font-weight="800">這一段最重要的授權來自指引自己：沒有隨機試驗比較過這三種改道，</text>
<text x="66" y="524.7" font-size="16" fill="#5C77C4" font-weight="800">所以指引無法推薦其中任何一種。</text>
<g filter="url(#sh)"><rect x="40" y="581.7" width="540" height="411" rx="18" fill="#FFFFFF" stroke="#5C77C4" stroke-width="3"/></g>
<text x="66" y="617.7" font-size="22" fill="#123641" font-weight="800">指引自己說不能排高下</text>
<rect x="66" y="659.7" width="6" height="116" rx="3" fill="#5C77C4"/>
<text x="76" y="677.7" font-size="16" fill="#123641" font-weight="700">Randomised controlled trials comparing conduit diversion</text>
<text x="76" y="700.7" font-size="16" fill="#123641" font-weight="700">with neobladder or continent cutaneous diversion have not</text>
<text x="76" y="723.7" font-size="16" fill="#123641" font-weight="700">been performed.</text>
<text x="76" y="752.7" font-size="15" fill="#527078">沒有隨機試驗比較過尿路導管與新膀胱或禁尿型皮膚改道。</text>
<rect x="66" y="793.7" width="6" height="93" rx="3" fill="#5C77C4"/>
<text x="76" y="811.7" font-size="16" fill="#123641" font-weight="700">Currently, it is not possible to recommend a particular type</text>
<text x="76" y="834.7" font-size="16" fill="#123641" font-weight="700">of urinary diversion.</text>
<text x="76" y="863.7" font-size="15" fill="#527078">目前無法推薦特定的尿路改道方式。</text>
<text x="66" y="912.7" font-size="15" fill="#345963">EAU 同時寫，改道的方式不影響腫瘤結果。NICE 的措辭是：選擇膀胱全</text>
<text x="66" y="934.7" font-size="15" fill="#345963">切除的人，要提供尿路造口或禁尿型改道，除非有認知功能障礙、腎功能</text>
<text x="66" y="956.7" font-size="15" fill="#345963">受損或明顯腸道疾病這類強烈禁忌。</text>
<text x="40" y="1036.7" font-size="25" fill="#123641" font-weight="800" class="r">三種做法的日子</text>
<text x="40" y="1071.7" font-size="16" fill="#527078">三欄平列，順序不代表優劣。每一欄底下標的是「這一欄的數字是什麼」——</text>
<text x="40" y="1094.7" font-size="16" fill="#527078">三欄報的不是同一組項目，所以它們之間沒有可比的分數。</text>
<g filter="url(#sh)"><rect x="40" y="1125.7" width="540" height="477" rx="18" fill="#FFFFFF"/></g>
<rect x="40" y="1125.7" width="540" height="6" rx="3" fill="#96790F"/>
<text x="60" y="1169.7" font-size="21" fill="#96790F" font-weight="800">迴腸導管</text>
<text x="60" y="1201.7" font-size="14" fill="#527078">肚皮上一個造口接尿袋</text>
<rect x="60" y="1235.7" width="107" height="20" rx="5" fill="#ECE8DE"/>
<text x="68" y="1250.2" font-size="13" fill="#7A6E58" font-weight="800">指引怎麼形容它</text>
<text x="60" y="1268.7" font-size="13.5" fill="#345963" font-weight="600">EAU 形容它是「結果可預期」的成熟做法。</text>
<rect x="60" y="1293.7" width="86.72" height="20" rx="5" fill="#ECE8DE"/>
<text x="68" y="1308.2" font-size="13" fill="#7A6E58" font-weight="800">30 天併發症</text>
<text x="60" y="1326.7" font-size="13.5" fill="#345963" font-weight="600">48%，以泌尿道感染、腎盂腎炎、輸尿管與迴腸接合處漏或狹窄為主</text>
<rect x="60" y="1351.7" width="133" height="20" rx="5" fill="#ECE8DE"/>
<text x="68" y="1366.2" font-size="13" fill="#7A6E58" font-weight="800">長期造口相關併發症</text>
<text x="60" y="1384.7" font-size="13.5" fill="#345963" font-weight="600">最高到 24%</text>
<rect x="60" y="1409.7" width="159" height="20" rx="5" fill="#ECE8DE"/>
<text x="68" y="1424.2" font-size="13" fill="#7A6E58" font-weight="800">上泌尿道功能或形態變化</text>
<text x="60" y="1442.7" font-size="13.5" fill="#345963" font-weight="600">最高到 30%</text>
<rect x="60" y="1467.7" width="107" height="20" rx="5" fill="#ECE8DE"/>
<text x="68" y="1482.2" font-size="13" fill="#7A6E58" font-weight="800">這一欄的另一面</text>
<text x="60" y="1500.7" font-size="13.5" fill="#345963" font-weight="600">它的晚期併發症在三種做法裡最少</text>
<rect x="60.0" y="1541.7" width="500.0" height="59.0" rx="10" fill="#F3E8CD"/>
<text x="74" y="1563.7" font-size="14.5" fill="#8F7418" font-weight="800">要學的是造口與尿袋的照顧。</text>
<g filter="url(#sh)"><rect x="40" y="1624.7" width="540" height="496" rx="18" fill="#FFFFFF"/></g>
<rect x="40" y="1624.7" width="540" height="6" rx="3" fill="#00806B"/>
<text x="60" y="1668.7" font-size="21" fill="#00806B" font-weight="800">原位新膀胱</text>
<text x="60" y="1700.7" font-size="14" fill="#527078">用腸子做一個袋子接回尿道，靠腹壓與放鬆括約肌排尿</text>
<rect x="60" y="1734.7" width="81" height="20" rx="5" fill="#ECE8DE"/>
<text x="68" y="1749.2" font-size="13" fill="#7A6E58" font-weight="800">有多少人做</text>
<text x="60" y="1767.7" font-size="13.5" fill="#345963" font-weight="600">荷蘭、德國、西班牙的登記資料顯示男女各約一到兩成的人做這個</text>
<rect x="60" y="1792.7" width="107" height="20" rx="5" fill="#ECE8DE"/>
<text x="68" y="1807.2" font-size="13" fill="#7A6E58" font-weight="800">新膀胱相關問題</text>
<text x="60" y="1825.7" font-size="13.5" fill="#345963" font-weight="600">EAU 表列發生率 30% 到 64%</text>
<rect x="60" y="1850.7" width="107" height="20" rx="5" fill="#ECE8DE"/>
<text x="68" y="1865.2" font-size="13" fill="#7A6E58" font-weight="800">男性的前瞻評估</text>
<text x="60" y="1883.7" font-size="13.5" fill="#345963" font-weight="600">日間禁尿從術後三個月內的 59% 升到 12 到 18 個月時的 92%；夜間從 28% 升到 18</text>
<text x="60" y="1902.7" font-size="13.5" fill="#345963" font-weight="600">到 36 個月時的 51%</text>
<rect x="60" y="1927.7" width="138.72" height="20" rx="5" fill="#ECE8DE"/>
<text x="68" y="1942.2" font-size="13" fill="#7A6E58" font-weight="800">56 位女性新膀胱病人</text>
<text x="60" y="1960.7" font-size="13.5" fill="#345963" font-weight="600">日間禁尿 70.4%、夜間 64.8%</text>
<rect x="60" y="1985.7" width="107" height="20" rx="5" fill="#ECE8DE"/>
<text x="68" y="2000.2" font-size="13" fill="#7A6E58" font-weight="800">女性的排空困難</text>
<text x="60" y="2018.7" font-size="13.5" fill="#345963" font-weight="600">約三分之二需要自行導尿、將近 45% 完全無法自行排尿</text>
<rect x="60.0" y="2059.7" width="500.0" height="58.99999999999977" rx="10" fill="#F3E8CD"/>
<text x="74" y="2081.7" font-size="14.5" fill="#8F7418" font-weight="800">要學的是定時排尿與（部分人）自行導尿。</text>
<g filter="url(#sh)"><rect x="40" y="2142.7" width="540" height="419" rx="18" fill="#FFFFFF"/></g>
<rect x="40" y="2142.7" width="540" height="6" rx="3" fill="#5C77C4"/>
<text x="60" y="2186.7" font-size="21" fill="#5C77C4" font-weight="800">輸尿管皮膚吻合</text>
<text x="60" y="2218.7" font-size="14" fill="#527078">輸尿管直接接到肚皮</text>
<rect x="60" y="2252.7" width="107" height="20" rx="5" fill="#ECE8DE"/>
<text x="68" y="2267.2" font-size="13" fill="#7A6E58" font-weight="800">指引怎麼形容它</text>
<text x="60" y="2285.7" font-size="13.5" fill="#345963" font-weight="600">EAU 寫它是最簡單的皮膚改道。</text>
<rect x="60" y="2310.7" width="133" height="20" rx="5" fill="#ECE8DE"/>
<text x="68" y="2325.2" font-size="13" fill="#7A6E58" font-weight="800">比迴腸導管低的項目</text>
<text x="60" y="2343.7" font-size="13.5" fill="#345963" font-weight="600">手術時間、併發症率、失血、輸血率、加護病房停留與住院天數</text>
<rect x="60" y="2368.7" width="42" height="20" rx="5" fill="#ECE8DE"/>
<text x="68" y="2383.2" font-size="13" fill="#7A6E58" font-weight="800">代價</text>
<text x="60" y="2401.7" font-size="13.5" fill="#345963" font-weight="600">輸尿管口徑小，造口狹窄與上行性泌尿道感染比用腸子做的造口多</text>
<rect x="60" y="2426.7" width="68" height="20" rx="5" fill="#ECE8DE"/>
<text x="68" y="2441.2" font-size="13" fill="#7A6E58" font-weight="800">誰的首選</text>
<text x="60" y="2459.7" font-size="13.5" fill="#345963" font-weight="600">對體弱者、或只有一顆腎而需要上泌尿道改道的人，它是首選</text>
<rect x="60.0" y="2500.7" width="500.0" height="59.0" rx="10" fill="#F3E8CD"/>
<text x="74" y="2522.7" font-size="14.5" fill="#8F7418" font-weight="800">要學的是造口照顧，以及導管更換的節奏。</text>
<text x="40" y="2587.7" font-size="15" fill="#527078">三欄的數字不是同一把尺：一欄報的是 30 天併發症，一欄報的是幾年後的禁尿率，</text>
<text x="40" y="2609.7" font-size="15" fill="#527078">一欄報的是跟另一種做法相比低的項目。它們不能互相相減，也不能排名。</text>
<rect x="40" y="2657.7" width="540" height="354" rx="16" fill="#F3E8CD" stroke="#C9A83E" stroke-width="2.5"/>
<text x="66" y="2691.7" font-size="20" fill="#123641" font-weight="800">三段讀完會發現一件事</text>
<rect x="66" y="2728.7" width="488" height="59" rx="12" fill="#FFFFFF"/>
<text x="82" y="2754.7" font-size="15" fill="#345963">最不像原本膀胱的那一種，晚期併發症最少。</text>
<rect x="66" y="2803.7" width="488" height="59" rx="12" fill="#FFFFFF"/>
<text x="82" y="2829.7" font-size="15" fill="#345963">最像原本膀胱的那一種，夜間禁尿到一年半以上還只有一半。</text>
<rect x="66" y="2878.7" width="488" height="59" rx="12" fill="#FFFFFF"/>
<text x="82" y="2904.7" font-size="15" fill="#345963">最簡單的那一種，是某些人的首選，而不是將就。</text>
<text x="66" y="2971.7" font-size="19" fill="#8F7418" font-weight="800">所以這不是排名，是三組不同的日子。</text>
<g filter="url(#sh)"><rect x="40" y="3037.7" width="540" height="548" rx="18" fill="#FFFFFF"/></g>
<text x="66" y="3073.7" font-size="20" fill="#123641" font-weight="800">長期的那張帳：這一格三種做法一起算，不分欄</text>
<rect x="66" y="3110.7" width="55" height="20" rx="5" fill="#ECE8DE"/>
<text x="74" y="3125.2" font-size="13" fill="#7A6E58" font-weight="800">腎功能</text>
<text x="66" y="3143.7" font-size="13.5" fill="#345963" font-weight="600">3,360 位因肌肉侵犯型膀胱癌接受膀胱全切除的人，29% 在 12 個月內進展到晚期</text>
<text x="66" y="3162.7" font-size="13.5" fill="#345963" font-weight="600">慢性腎病</text>
<rect x="66" y="3187.7" width="81" height="20" rx="5" fill="#ECE8DE"/>
<text x="74" y="3202.2" font-size="13" fill="#7A6E58" font-weight="800">接合處狹窄</text>
<text x="66" y="3220.7" font-size="13.5" fill="#345963" font-weight="600">良性的輸尿管與腸道接合處狹窄最高到 20%</text>
<rect x="66" y="3245.7" width="82.69" height="20" rx="5" fill="#ECE8DE"/>
<text x="74" y="3260.2" font-size="13" fill="#7A6E58" font-weight="800">維生素 B12</text>
<text x="66" y="3278.7" font-size="13.5" fill="#345963" font-weight="600">做腸道改道的人偏低的比例 17%，EAU 建議每年驗一次</text>
<rect x="66" y="3303.7" width="42" height="20" rx="5" fill="#ECE8DE"/>
<text x="74" y="3318.2" font-size="13" fill="#7A6E58" font-weight="800">骨頭</text>
<text x="66" y="3336.7" font-size="13.5" fill="#345963" font-weight="600">SEER 資料顯示膀胱全切除與骨折風險上升 21% 相關，推測與長期代謝性酸中毒</text>
<text x="66" y="3355.7" font-size="13.5" fill="#345963" font-weight="600">和骨質流失有關——那是相關，不是已經證明的因果</text>
<rect x="66" y="3380.7" width="55" height="20" rx="5" fill="#ECE8DE"/>
<text x="74" y="3395.2" font-size="13" fill="#7A6E58" font-weight="800">時間軸</text>
<text x="66" y="3413.7" font-size="13.5" fill="#345963" font-weight="600">改道相關併發症在追蹤的前五年會偵測到 45%；一個 131 人的系列裡，活過 15 年</text>
<text x="66" y="3432.7" font-size="13.5" fill="#345963" font-weight="600">的人上升到 94%，15 年追蹤時 50% 出現上泌尿道變化、38% 有尿路結石</text>
<rect x="66" y="3475.7" width="488" height="106.0" rx="12" fill="#D8EDE7"/>
<text x="84" y="3499.7" font-size="15" fill="#00806B" font-weight="700">而且有一份 1,383 人的回溯資料顯示：迴腸導管與原位新膀胱在腎</text>
<text x="84" y="3521.7" font-size="15" fill="#00806B" font-weight="700">絲球過濾率下降的風險上沒有顯著差異，真正跟下降相關的是年齡與</text>
<text x="84" y="3543.7" font-size="15" fill="#00806B" font-weight="700">接合處狹窄。</text>
<g filter="url(#sh)"><rect x="40" y="3611.7" width="540" height="527" rx="18" fill="#F6E2E0" stroke="#B04A4A" stroke-width="3"/></g>
<text x="66" y="3647.7" font-size="20" fill="#B04A4A" font-weight="800">這幾樣不必等下一次回診</text>
<text x="66" y="3680.7" font-size="14.5" fill="#345963">這幾樣沒有可引用的量化門檻，所以這裡寫的是症狀，不是數字。出現任何</text>
<text x="66" y="3701.7" font-size="14.5" fill="#345963">一樣，當天就聯絡你的手術團隊或回急診。</text>
<rect x="66" y="3736.7" width="488" height="58" rx="12" fill="#FFFFFF" stroke="#B04A4A" stroke-width="2"/>
<rect x="82" y="3756.7" width="26" height="26" rx="13" fill="#B04A4A"/>
<text x="95" y="3774.7" font-size="17" fill="#FFFFFF" font-weight="800" text-anchor="middle">!</text>
<text x="118" y="3761.7" font-size="14.5" fill="#123641" font-weight="700">發燒合併單側腰痛（腎盂腎炎或輸尿管接合處狹窄常是這個樣子）</text>
<rect x="66" y="3810.7" width="488" height="58" rx="12" fill="#FFFFFF" stroke="#B04A4A" stroke-width="2"/>
<rect x="82" y="3830.7" width="26" height="26" rx="13" fill="#B04A4A"/>
<text x="95" y="3848.7" font-size="17" fill="#FFFFFF" font-weight="800" text-anchor="middle">!</text>
<text x="118" y="3835.7" font-size="14.5" fill="#123641" font-weight="700">造口的尿量突然變少，或整天沒有尿</text>
<rect x="66" y="3884.7" width="488" height="58" rx="12" fill="#FFFFFF" stroke="#B04A4A" stroke-width="2"/>
<rect x="82" y="3904.7" width="26" height="26" rx="13" fill="#B04A4A"/>
<text x="95" y="3922.7" font-size="17" fill="#FFFFFF" font-weight="800" text-anchor="middle">!</text>
<text x="118" y="3909.7" font-size="14.5" fill="#123641" font-weight="700">傷口或造口周圍一直滲出液體（接合處滲漏的樣子）</text>
<rect x="66" y="3958.7" width="488" height="58" rx="12" fill="#FFFFFF" stroke="#B04A4A" stroke-width="2"/>
<rect x="82" y="3978.7" width="26" height="26" rx="13" fill="#B04A4A"/>
<text x="95" y="3996.7" font-size="17" fill="#FFFFFF" font-weight="800" text-anchor="middle">!</text>
<text x="118" y="3983.7" font-size="14.5" fill="#123641" font-weight="700">做了新膀胱卻解不出尿，而且腹脹</text>
<text x="66" y="4036.7" font-size="15" fill="#345963">「怎麼選」比「選哪一種」更重要：EAU 記了一件事——讓病人在充分被</text>
<text x="66" y="4058.7" font-size="15" fill="#345963">告知之後做出改道的決定，與術後較少的決策後悔相關，而且「</text>
<text x="66" y="4080.7" font-size="15" fill="#345963">independent of the method selected」，跟最後選了哪一種無關。NICE</text>
<text x="66" y="4102.7" font-size="15" fill="#345963">則要求造口護理師在手術前後都要能談。</text>
<rect x="40" y="4164.7" width="540" height="368" rx="16" fill="#ECE8DE" stroke="#B9AE94" stroke-width="2"/>
<text x="66" y="4198.7" font-size="20" fill="#7A6E58" font-weight="800">這張圖不准被讀成的兩句話</text>
<rect x="66" y="4235.7" width="488" height="122" rx="14" fill="#FFFFFF" stroke="#B9AE94" stroke-width="2"/>
<circle cx="99" cy="4267.7" r="15" fill="#FFFFFF" stroke="#7A6E58" stroke-width="2.4"/>
<line x1="91.8" y1="4260.5" x2="106.2" y2="4274.9" stroke="#7A6E58" stroke-width="2.6" stroke-linecap="round"/>
<line x1="91.8" y1="4274.9" x2="106.2" y2="4260.5" stroke="#7A6E58" stroke-width="2.6" stroke-linecap="round"/>
<text x="126" y="4259.7" font-size="16.5" fill="#123641" font-weight="800">「這三種有高下之分」</text>
<text x="84" y="4301.7" font-size="14.5" fill="#345963">指引自己寫沒有隨機試驗比較過，也無法推薦其中任何一種；改道的方</text>
<text x="84" y="4322.7" font-size="14.5" fill="#345963">式不影響腫瘤結果。</text>
<rect x="66" y="4375.7" width="488" height="143" rx="14" fill="#FFFFFF" stroke="#B9AE94" stroke-width="2"/>
<circle cx="99" cy="4407.7" r="15" fill="#FFFFFF" stroke="#7A6E58" stroke-width="2.4"/>
<line x1="91.8" y1="4400.5" x2="106.2" y2="4414.9" stroke="#7A6E58" stroke-width="2.6" stroke-linecap="round"/>
<line x1="91.8" y1="4414.9" x2="106.2" y2="4400.5" stroke="#7A6E58" stroke-width="2.6" stroke-linecap="round"/>
<text x="126" y="4399.7" font-size="16.5" fill="#123641" font-weight="800">「照這張圖我就知道要選哪一種」</text>
<text x="84" y="4441.7" font-size="14.5" fill="#345963">哪一種適合你，要看腎功能、腸道狀況、手部靈活度、認知功能與你自</text>
<text x="84" y="4462.7" font-size="14.5" fill="#345963">己的日子怎麼過；這是你跟手術團隊與造口護理師一起談出來的，不是</text>
<text x="84" y="4483.7" font-size="14.5" fill="#345963">從表上挑出來的。</text>
<text x="40" y="4550.7" font-size="15" fill="#527078">示意圖，依 EAU 肌肉侵犯型與轉移性膀胱癌指引 2026 版與 NICE NG2 重繪，非</text>
<text x="40" y="4573.2" font-size="15" fill="#527078">擷取自原文件圖表；各研究族群、設計與終點不同，數點不可直接互比。</text>
  </g>
</svg>
