<svg xmlns="http://www.w3.org/2000/svg" width="620" height="5375" viewBox="0 0 620 5375" role="img" aria-labelledby="t d">
  <title id="t">NF2 相關神經鞘瘤病：同一個基因怎麼同時解釋多發腦膜瘤與雙側前庭神經鞘瘤</title>
  <desc id="d">示意圖：NF2 相關神經鞘瘤病怎麼用同一個基因同時解釋多發腦膜瘤與雙側前庭神經鞘瘤。圖的開頭是命名那一格，標題是「不是改名，是這個詞被退掉了」，逐字引 2022 年國際共識：「在修訂後的命名中，neurofibromatosis 2 這個詞已經被退場，以改善診斷的特異性。」新名稱是 NF2-related schwannomatosis，中文可叫 NF2 相關神經鞘瘤病，縮寫 NF2-SWN；理由是強調這群疾病在表現上的重疊、減少跟第 1 型神經纖維瘤病的誤診；新準則也把鑲嵌型直接寫進條文；拿著寫「NF2」的舊報告查資料會查到兩套詞彙，它們指同一件事，但內容不完全一樣。圖的中心是一個節點：NF2（第 22 號染色體）。節點上寫三件事：NF2-SWN 是體染色體顯性的腫瘤易感症候群，帶因者容易長出神經鞘瘤、腦膜瘤與室管膜瘤；NF2 也是偶發型腦膜瘤最常見的驅動突變，Alliance A071401 之所以只收帶體細胞 NF2 突變的腦膜瘤，設計理由逐字就是「腦膜瘤中 NF2 突變的優勢地位」；一個人同時長兩種瘤，是同一條路壞掉的兩個出口。從中心節點往左右各分出一條：左分支是多發腦膜瘤——一生當中最多八成的 NF2-SWN 病人會長腦膜瘤（15 篇、937 位病人、3,637 顆的統合分析）；監測中的 2,082 顆腫瘤加權平均生長速率每年 0.508 立方公分；監測期間長出新生腦膜瘤的病人比例 24.6%，但 95% 信賴區間非常寬（2.73 到 58.7），只有三篇研究有資料；被手術切除的只有 203 顆（彙整復發風險 12.5%），接受立體定位放射手術的 665 顆（惡化風險 6.29%）；國際共識另補約 10% 會長得快（一份研究把快定義為每年 2 立方公分以上），20% 的病人會長出新的腦膜瘤。右分支是雙側前庭神經鞘瘤——它是 NF2-SWN 的單一充分診斷條件；影像該多久做一次要調整，這群人的聽神經瘤生長速率變異較大，可能需要比偶發型更頻繁的影像；雙側的人在對側腫瘤切除後，這側的生長速率可能加快。兩條分支下方註明：注意分母，手術與放射手術加起來的顆數遠少於監測中的顆數，「最多八成會長」不等於「八成的人要治療」。另有一段接到放射線那一面：放射線引起的腦膜瘤裡，NF2 的點突變比偶發型少，但基因融合事件反而較多，推測是放射造成雙股斷裂後修復出錯的結果；同一個基因，被兩種完全不同的機制打壞。接著是診斷準則，符合任一項即可診斷：第一，雙側前庭神經鞘瘤；第二，在至少兩個解剖位置不同的 NF2 相關腫瘤（神經鞘瘤、腦膜瘤或室管膜瘤）裡找到同一個 NF2 致病變異，附註是若血液這類未受影響組織裡的變異等位基因頻率明顯低於 50%，診斷是鑲嵌型；第三，兩個主要條件，或一個主要條件加兩個次要條件——主要條件是單側前庭神經鞘瘤、有一位非手足的一等親罹患 NF2-SWN、兩顆以上的腦膜瘤（單獨一顆只算次要條件）、在未受影響組織中找到 NF2 致病變異；次要條件是室管膜瘤、腦膜瘤、神經鞘瘤，加上幼年型白內障、視網膜錯構瘤、40 歲以下的視網膜前膜。同格另列兩件容易寫錯的事：雙側聽神經瘤沒有年齡上限，2019 年曾有人提議加一個 70 歲的切點，共識決定不加，理由逐字是「避免臨床醫師因此不去檢查年紀較大的病人」；單側聽神經瘤加上兩顆以上其他部位的神經鞘瘤時，確認 NF2-SWN 之前應先排除 LZTR1 的變異。再往下是 bevacizumab 的聽力反應，先給反應定義：三個前瞻試驗的主要終點都是用字詞辨識分數定義的聽力反應——聽懂一組標準字詞的比例改善並維持一段時間，不是主觀覺得比較好聽。三筆數字各帶族群：14 位 NF2 病人、目標耳有進展性聽力喪失、用藥 46 週，確認的聽力反應 5/14，36%（95% 信賴區間 13 到 65%；反應定義是改善維持三個月以上；沒有病人聽力變差）；22 人的高劑量試驗在六個月時是 9/22，41%，作者的結論是高劑量看來不比標準劑量更有效；9 篇、176 人的系統性回顧聽力改善 36%、穩定 46%、惡化 18%，腫瘤部分縮小 40%、穩定 50%、惡化 10%，嚴重不良反應 13%，作者並點出停藥後有病人腫瘤再長。維持治療的 20 人試驗看得到時間這一維，目標耳免於聽力惡化的比例 48 週是 95%、72 週 89%、98 週降到 70%。同格註明這條路只對 NF2 相關的聽神經瘤開著：2020 年歐洲聽神經瘤指引寫的是，除了用在 NF2 的 bevacizumab 之外，藥物治療沒有角色；偶發型的人不要把這些數字套到自己身上。圖的底部是一整欄鑑別：多發腦膜瘤不等於 NF2。列出 SMARCB1（第 22 號染色體相關的 SMARCB1 神經鞘瘤病，也可以有多顆顱內腦膜瘤）、LZTR1（單側聽神經瘤加上其他部位神經鞘瘤時要先排除的那一個）、BAP1 腫瘤易感症候群、SUFU 家族性腦膜瘤易感、SMARCE1 造成的家族性透明細胞腦膜瘤，以及過去的放射線暴露——病史要問清楚過去的放射線暴露，因為腦膜瘤本來就是久遠放射暴露後常見的續發腫瘤，放射線引起的腦膜瘤裡多顆的就佔 17.3%。同格引國際共識：跟偶發型比，NF2-SWN 病人發病年齡較輕、更容易長出多顆腦膜瘤，所以這類表現的人應接受生殖系 NF2 與 SMARCE1 變異的篩檢；要不要做、怎麼做是遺傳諮詢門診的事，不是自己去掛號驗。接著是鑲嵌型那一格：1,055 位沒有上一代家族史的新發個案裡，確診或推定鑲嵌型的有 232 人（22.0%）；因為非鑲嵌型的變異偵測率本身只有 36.7%，作者推算整體的鑲嵌比例可能高達 59.7%；這比例還隨發病年齡大幅變化，20 歲以前以雙側聽神經瘤表現的人是 21.7%，60 歲以上是 80.7%；鑲嵌型的病人本人仍然可能病得很重，需要完整的臨床監測與介入；檢測也不是抽一管血就結束，要驗血液，理想上再驗兩個以上來自神經系統不同區域的相關腫瘤，才分得出是鑲嵌型還是生殖系。這一格用一條紅色的橫幅明寫：家屬的再發風險，這張圖不寫百分比——那要由遺傳諮詢師依你的檢驗結果算。最後是台灣端，分成查得到與查不到兩格：查得到的是健保條文裡有「遺傳諮詢中心」這個角色，25021B「染色體檢查（特殊）」的規範逐字寫著限衛生福利部認證之遺傳諮詢中心申請實施、作為一般性篩檢者非屬給付範圍；查不到的是全表裡沒有任何以 NF2 或神經纖維瘤命名的檢測項目，以及 NF2-SWN 在不在台灣公告的罕見疾病名單裡——《罕見疾病防治及藥物法》第 3 條寫的是由中央主管機關依盛行率基準指定公告，法源查得到、名單取不到，請向遺傳諮詢中心確認。圖的結尾寫：回診前先把家族史寫成一張表，誰有過腦部或脊椎腫瘤、聽力問題、幼年白內障，準則裡好幾條要靠它；到了診間問的是「我這個表現需不需要轉遺傳諮詢」，而不是自己先去驗。</desc>
  <defs><linearGradient id="bg" x1="0" y1="0" x2="1" y2="1"><stop stop-color="#F4EFE3"/><stop offset="1" stop-color="#E8E1D1"/></linearGradient><filter id="sh" x="-20%" y="-20%" width="140%" height="140%"><feDropShadow dx="0" dy="8" stdDeviation="12" flood-color="#0B2832" flood-opacity=".13"/></filter><pattern id="hatch" width="8" height="8" patternUnits="userSpaceOnUse" patternTransform="rotate(45)"><line x1="0" y1="0" x2="0" y2="8" stroke="#B9AE94" stroke-width="2" opacity="0.55"/></pattern><pattern id="hatchR" width="8" height="8" patternUnits="userSpaceOnUse" patternTransform="rotate(135)"><line x1="0" y1="0" x2="0" y2="8" stroke="#B04A4A" stroke-width="2" opacity="0.45"/></pattern><style>.z{font-family:"Noto Sans TC","Noto Sans CJK TC","PingFang TC","Microsoft JhengHei",sans-serif}.r{font-family:"Noto Serif TC","Noto Serif CJK TC","PingFang TC","Microsoft JhengHei",serif}</style></defs>
  <rect width="620" height="5375" rx="36" fill="url(#bg)"/>
  <g class="z">
<text x="40" y="66" font-size="16" fill="#A98722" font-weight="800" letter-spacing="3px">NF2-RELATED SCHWANNOMATOSIS</text>
<text x="40" y="118" font-size="40" fill="#123641" font-weight="800" class="r">同一個基因，兩種瘤：多發腦</text>
<text x="40" y="168.4" font-size="40" fill="#123641" font-weight="800" class="r">膜瘤與雙側前庭神經鞘瘤</text>
<text x="40" y="228.8" font-size="19" fill="#527078">報告上寫著兩顆以上的腦膜瘤，或兩耳都有前庭神經鞘瘤（聽神</text>
<text x="40" y="257.3" font-size="19" fill="#527078">經瘤），這張圖是畫給你的。</text>
<text x="40" y="289.8" font-size="19" fill="#527078">這一題不能拆成兩個門診各問一半；圖上每一個數字都帶瘤別與</text>
<text x="40" y="318.3" font-size="19" fill="#527078">族群，各研究設計與終點不同，數點不可直接互比。</text>
<g filter="url(#sh)"><rect x="40" y="366.8" width="540" height="328" rx="18" fill="#FFFFFF" stroke="#C9A83E" stroke-width="3"/></g>
<text x="66" y="400.8" font-size="20" fill="#123641" font-weight="800">不是改名，是這個詞被退掉了</text>
<rect x="66" y="446.8" width="488" height="77.99999999999994" rx="12" fill="#F3E8CD"/>
<text x="86" y="466.8" font-size="17" fill="#8F7418" font-weight="800">「在修訂後的命名中，neurofibromatosis 2 這個詞已經被</text>
<text x="86" y="491.8" font-size="17" fill="#8F7418" font-weight="800">退場，以改善診斷的特異性。」</text>
<rect x="66" y="446.8" width="5" height="78" rx="2" fill="#C9A83E"/>
<text x="66" y="542.8" font-size="15.5" fill="#345963">2022 年一份國際共識重新整理了這類疾病的名稱與診斷準則。新名稱</text>
<text x="66" y="565.8" font-size="15.5" fill="#345963">是 NF2-related schwannomatosis，中文可叫 NF2 相關神經鞘瘤病，</text>
<text x="66" y="588.8" font-size="15.5" fill="#345963">縮寫 NF2-SWN；理由是強調這群疾病在表現上的重疊、減少跟第 1 型</text>
<text x="66" y="611.8" font-size="15.5" fill="#345963">神經纖維瘤病的誤診。新準則也把鑲嵌型直接寫進條文。拿著寫「NF2」</text>
<text x="66" y="634.8" font-size="15.5" fill="#345963">的舊報告查資料，你會查到兩套詞彙；它們指同一件事，但新準則的內</text>
<text x="66" y="657.8" font-size="15.5" fill="#345963">容跟舊的不完全一樣。</text>
<g filter="url(#sh)"><rect x="40" y="720.8" width="540" height="1080" rx="18" fill="#FFFFFF"/></g>
<rect x="66" y="734.8" width="488" height="250.0" rx="16" fill="#123641"/>
<text x="90" y="766.8" font-size="26" fill="#FFFFFF" font-weight="800">NF2（第 22 號染色體）</text>
<circle cx="95" cy="806.8" r="4" fill="#F3E8CD"/>
<text x="108" y="812.8" font-size="15" fill="#FFFFFF">NF2-SWN 是體染色體顯性的腫瘤易感症候群，帶因者容易長出</text>
<text x="108" y="834.8" font-size="15" fill="#FFFFFF">神經鞘瘤、腦膜瘤與室管膜瘤</text>
<circle cx="95" cy="862.8" r="4" fill="#F3E8CD"/>
<text x="108" y="868.8" font-size="15" fill="#FFFFFF">NF2 也是偶發型腦膜瘤最常見的驅動突變——Alliance A071401</text>
<text x="108" y="890.8" font-size="15" fill="#FFFFFF">之所以只收帶體細胞 NF2 突變的腦膜瘤，設計理由逐字就是「</text>
<text x="108" y="912.8" font-size="15" fill="#FFFFFF">腦膜瘤中 NF2 突變的優勢地位」</text>
<circle cx="95" cy="940.8" r="4" fill="#F3E8CD"/>
<text x="108" y="946.8" font-size="15" fill="#FFFFFF">一個人同時長兩種瘤，是同一條路壞掉的兩個出口</text>
<line x1="310" y1="990.8" x2="310" y2="1006.52" stroke="#B9AE94" stroke-width="2.5" stroke-linecap="round"/>
<polygon points="310,1014.8 306.33,1006.58 313.67,1006.58" fill="#B9AE94"/>
<rect x="66" y="1022.8" width="488" height="324" rx="14" fill="#F7F1E4"/>
<text x="84" y="1052.8" font-size="20" fill="#96790F" font-weight="800">多發腦膜瘤</text>
<circle cx="89" cy="1085.8" r="3.5" fill="#96790F"/>
<text x="100" y="1091.8" font-size="14.5" fill="#345963">一生當中最多八成的 NF2-SWN 病人會長腦膜瘤（15 篇、937 位病</text>
<text x="100" y="1112.8" font-size="14.5" fill="#345963">人、3,637 顆的統合分析）</text>
<circle cx="89" cy="1139.8" r="3.5" fill="#96790F"/>
<text x="100" y="1145.8" font-size="14.5" fill="#345963">監測中的 2,082 顆腫瘤加權平均生長速率每年 0.508 cm³</text>
<circle cx="89" cy="1172.8" r="3.5" fill="#96790F"/>
<text x="100" y="1178.8" font-size="14.5" fill="#345963">監測期間長出新生腦膜瘤的病人比例 24.6%，但 95% 信賴區間非常</text>
<text x="100" y="1199.8" font-size="14.5" fill="#345963">寬（2.73 到 58.7），只有三篇研究有資料</text>
<circle cx="89" cy="1226.8" r="3.5" fill="#96790F"/>
<text x="100" y="1232.8" font-size="14.5" fill="#345963">被手術切除的只有 203 顆（彙整復發風險 12.5%）；接受立體定位</text>
<text x="100" y="1253.8" font-size="14.5" fill="#345963">放射手術的 665 顆（惡化風險 6.29%）</text>
<circle cx="89" cy="1280.8" r="3.5" fill="#96790F"/>
<text x="100" y="1286.8" font-size="14.5" fill="#345963">國際共識另補：約 10% 會長得快（一份研究把快定義為每年 2 cm³</text>
<text x="100" y="1307.8" font-size="14.5" fill="#345963">以上），20% 的病人會長出新的腦膜瘤</text>
<rect x="66" y="1366.8" width="488" height="216" rx="14" fill="#F7F1E4"/>
<text x="84" y="1396.8" font-size="20" fill="#00806B" font-weight="800">雙側前庭神經鞘瘤</text>
<circle cx="89" cy="1429.8" r="3.5" fill="#00806B"/>
<text x="100" y="1435.8" font-size="14.5" fill="#345963">雙側前庭神經鞘瘤是 NF2-SWN 的單一充分診斷條件——符合這一項</text>
<text x="100" y="1456.8" font-size="14.5" fill="#345963">就可以診斷</text>
<circle cx="89" cy="1483.8" r="3.5" fill="#00806B"/>
<text x="100" y="1489.8" font-size="14.5" fill="#345963">影像該多久做一次要調整：這群人的聽神經瘤生長速率變異較大，可</text>
<text x="100" y="1510.8" font-size="14.5" fill="#345963">能需要比偶發型更頻繁的影像</text>
<circle cx="89" cy="1537.8" r="3.5" fill="#00806B"/>
<text x="100" y="1543.8" font-size="14.5" fill="#345963">雙側的人在對側腫瘤切除後，這側的生長速率可能加快</text>
<rect x="66" y="1610.8" width="488" height="72.0" rx="12" fill="#F6E2E0"/>
<text x="84" y="1628.8" font-size="15.5" fill="#B04A4A" font-weight="800">注意分母：手術與放射手術加起來的顆數，遠少於監測中的顆數</text>
<text x="84" y="1651.8" font-size="15.5" fill="#B04A4A" font-weight="800">——「最多八成會長」不等於「八成的人要治療」。</text>
<rect x="66" y="1698.8" width="488" height="90.0" rx="12" fill="none" stroke="#B9AE94" stroke-width="1.8" stroke-dasharray="6 6"/>
<text x="84" y="1716.8" font-size="15" fill="#345963">還有一層接得上放射線那一面：放射線引起的腦膜瘤裡，NF2 的點</text>
<text x="84" y="1738.8" font-size="15" fill="#345963">突變比偶發型少，但基因融合事件反而較多，推測是放射造成雙股斷</text>
<text x="84" y="1760.8" font-size="15" fill="#345963">裂後修復出錯的結果。同一個基因，被兩種完全不同的機制打壞。</text>
<g filter="url(#sh)"><rect x="40" y="1826.8" width="540" height="720" rx="18" fill="#FFFFFF"/></g>
<text x="66" y="1860.8" font-size="20" fill="#123641" font-weight="800">準則怎麼寫：符合任一項即可診斷</text>
<rect x="66" y="1906.8" width="488" height="62" rx="12" fill="#F7F1E4"/>
<circle cx="96" cy="1930.8" r="15" fill="#FFFFFF" stroke="#00806B" stroke-width="2.2"/>
<text x="96" y="1936.8" font-size="15" fill="#00806B" font-weight="800" text-anchor="middle">1</text>
<text x="124" y="1926.8" font-size="16" fill="#123641" font-weight="700">雙側前庭神經鞘瘤</text>
<rect x="66" y="1980.8" width="488" height="124.00000000000023" rx="12" fill="#F7F1E4"/>
<circle cx="96" cy="2004.8" r="15" fill="#FFFFFF" stroke="#5C77C4" stroke-width="2.2"/>
<text x="96" y="2010.8" font-size="15" fill="#5C77C4" font-weight="800" text-anchor="middle">2</text>
<text x="124" y="2000.8" font-size="16" fill="#123641" font-weight="700">在至少兩個解剖位置不同的 NF2 相關腫瘤（神經鞘瘤、腦</text>
<text x="124" y="2023.8" font-size="16" fill="#123641" font-weight="700">膜瘤或室管膜瘤）裡找到同一個 NF2 致病變異</text>
<text x="124" y="2052.8" font-size="14.5" fill="#527078">附註：若血液這類未受影響組織裡的變異等位基因頻率明顯低於</text>
<text x="124" y="2073.8" font-size="14.5" fill="#527078">50%，診斷是鑲嵌型</text>
<rect x="66" y="2116.8" width="488" height="170.0" rx="12" fill="#F7F1E4"/>
<circle cx="96" cy="2140.8" r="15" fill="#FFFFFF" stroke="#96790F" stroke-width="2.2"/>
<text x="96" y="2146.8" font-size="15" fill="#96790F" font-weight="800" text-anchor="middle">3</text>
<text x="124" y="2136.8" font-size="16" fill="#123641" font-weight="700">兩個主要條件，或一個主要條件加兩個次要條件</text>
<text x="124" y="2165.8" font-size="14.5" fill="#527078">主要條件：單側前庭神經鞘瘤、有一位非手足的一等親罹患</text>
<text x="124" y="2186.8" font-size="14.5" fill="#527078">NF2-SWN、兩顆以上的腦膜瘤（單獨一顆只算次要條件）、在</text>
<text x="124" y="2207.8" font-size="14.5" fill="#527078">未受影響組織中找到 NF2 致病變異</text>
<text x="124" y="2234.8" font-size="14.5" fill="#527078">次要條件：室管膜瘤、腦膜瘤、神經鞘瘤，加上幼年型白內障、</text>
<text x="124" y="2255.8" font-size="14.5" fill="#527078">視網膜錯構瘤、40 歲以下的視網膜前膜</text>
<rect x="66" y="2294.8" width="488" height="109" rx="14" fill="#F3E8CD"/>
<text x="82" y="2320.8" font-size="16" fill="#8F7418" font-weight="800">雙側聽神經瘤沒有年齡上限</text>
<text x="82" y="2347.8" font-size="14.5" fill="#345963">2019 年曾有人提議加一個 70 歲的切點，共識決定不加，理由逐字是「</text>
<text x="82" y="2368.8" font-size="14.5" fill="#345963">避免臨床醫師因此不去檢查年紀較大的病人」</text>
<rect x="66" y="2421.8" width="488" height="109" rx="14" fill="#F3E8CD"/>
<text x="82" y="2447.8" font-size="16" fill="#8F7418" font-weight="800">單側加上其他部位的神經鞘瘤時，先排除 LZTR1</text>
<text x="82" y="2474.8" font-size="14.5" fill="#345963">單側聽神經瘤加上兩顆以上其他部位的神經鞘瘤時，確認 NF2-SWN 之</text>
<text x="82" y="2495.8" font-size="14.5" fill="#345963">前應先排除 LZTR1 的變異</text>
<g filter="url(#sh)"><rect x="40" y="2572.8" width="540" height="791" rx="18" fill="#FFFFFF"/></g>
<text x="66" y="2606.8" font-size="20" fill="#123641" font-weight="800">bevacizumab 的「聽力反應」，要帶反應定義才讀得</text>
<text x="66" y="2634.8" font-size="20" fill="#123641" font-weight="800">懂</text>
<rect x="66" y="2680.8" width="488" height="95.0" rx="12" fill="#E3E8F6"/>
<text x="84" y="2698.8" font-size="15.5" fill="#5C77C4" font-weight="800">三個前瞻試驗的主要終點都是用字詞辨識分數定義的聽力反應——</text>
<text x="84" y="2721.8" font-size="15.5" fill="#5C77C4" font-weight="800">聽懂一組標準字詞的比例改善並維持一段時間，不是主觀覺得比較</text>
<text x="84" y="2744.8" font-size="15.5" fill="#5C77C4" font-weight="800">好聽。</text>
<text x="66" y="2803.8" font-size="14.5" fill="#527078" font-weight="700">14 位 NF2 病人，目標耳有進展性聽力喪失，用藥 46 週</text>
<rect x="66" y="2829.8" width="121.68" height="24" rx="6" fill="#00806B"/>
<text x="414" y="2848.8" font-size="16" fill="#00806B" font-weight="800">5/14，36%</text>
<text x="66" y="2861.8" font-size="14" fill="#527078">95% 信賴區間 13 到 65%；反應定義是改善維持三個月以上；沒有病人聽力變差</text>
<text x="66" y="2911.8" font-size="14.5" fill="#527078" font-weight="700">22 人的高劑量試驗，六個月時</text>
<rect x="66" y="2937.8" width="138.58" height="24" rx="6" fill="#5C77C4"/>
<text x="414" y="2956.8" font-size="16" fill="#5C77C4" font-weight="800">9/22，41%</text>
<text x="66" y="2969.8" font-size="14" fill="#527078">作者的結論是高劑量看來不比標準劑量更有效</text>
<text x="66" y="3019.8" font-size="14.5" fill="#527078" font-weight="700">9 篇、176 人的系統性回顧</text>
<rect x="66" y="3045.8" width="121.68" height="24" rx="6" fill="#96790F"/>
<text x="414" y="3064.8" font-size="16" fill="#96790F" font-weight="800">聽力改善 36%</text>
<text x="66" y="3077.8" font-size="14" fill="#527078">穩定 46%、惡化 18%；腫瘤部分縮小 40%、穩定 50%、惡化 10%；嚴重不良反</text>
<text x="66" y="3097.8" font-size="14" fill="#527078">應 13%，作者並點出停藥後有病人腫瘤再長</text>
<text x="66" y="3147.8" font-size="15.5" fill="#8F7418" font-weight="800">維持治療的 20 人試驗看得到時間這一維：目標耳免於聽力惡化的比例</text>
<text x="66" y="3177.8" font-size="14.5" fill="#527078" font-weight="700">48 週</text>
<rect x="146" y="3161.8" width="311.6" height="22" rx="6" fill="#00806B"/>
<text x="494" y="3178.8" font-size="16" fill="#00806B" font-weight="800">95%</text>
<text x="66" y="3207.8" font-size="14.5" fill="#527078" font-weight="700">72 週</text>
<rect x="146" y="3191.8" width="291.92" height="22" rx="6" fill="#00806B"/>
<text x="494" y="3208.8" font-size="16" fill="#00806B" font-weight="800">89%</text>
<text x="66" y="3237.8" font-size="14.5" fill="#527078" font-weight="700">98 週</text>
<rect x="146" y="3221.8" width="229.6" height="22" rx="6" fill="#00806B"/>
<text x="494" y="3238.8" font-size="16" fill="#00806B" font-weight="800">70%</text>
<rect x="66" y="3261.8" width="488" height="92.0" rx="12" fill="#ECE8DE"/>
<text x="84" y="3279.8" font-size="15" fill="#345963">這條路只對 NF2 相關的聽神經瘤開著。2020 年歐洲聽神經瘤指引那</text>
<text x="84" y="3301.8" font-size="15" fill="#345963">句很短：除了用在 NF2 的 bevacizumab 之外，藥物治療沒有角色。</text>
<text x="84" y="3323.8" font-size="15" fill="#345963">偶發型的人不要把這些數字套到自己身上。</text>
<rect x="40" y="3389.8" width="540" height="877" rx="16" fill="#F6E2E0" stroke="#B04A4A" stroke-width="2.5"/>
<text x="66" y="3423.8" font-size="20" fill="#B04A4A" font-weight="800">多發腦膜瘤不等於 NF2</text>
<text x="66" y="3459.8" font-size="15" fill="#527078">報告上兩顆腦膜瘤，不是就等於 NF2。同一份綜述的鑑別清單是這樣的。</text>
<rect x="66" y="3495.8" width="488" height="109" rx="14" fill="#FFFFFF"/>
<text x="82" y="3521.8" font-size="16.5" fill="#5C77C4" font-weight="800">SMARCB1</text>
<text x="82" y="3548.8" font-size="14.5" fill="#345963">第 22 號染色體相關的 SMARCB1 神經鞘瘤病，也可以有多顆顱內腦膜</text>
<text x="82" y="3569.8" font-size="14.5" fill="#345963">瘤</text>
<rect x="66" y="3620.8" width="488" height="88" rx="14" fill="#FFFFFF"/>
<text x="82" y="3646.8" font-size="16.5" fill="#5C77C4" font-weight="800">LZTR1</text>
<text x="82" y="3673.8" font-size="14.5" fill="#345963">單側聽神經瘤加上其他部位神經鞘瘤時，要先排除的那一個</text>
<rect x="66" y="3724.8" width="488" height="88" rx="14" fill="#FFFFFF"/>
<text x="82" y="3750.8" font-size="16.5" fill="#96790F" font-weight="800">BAP1</text>
<text x="82" y="3777.8" font-size="14.5" fill="#345963">沒有神經鞘瘤時，還有 BAP1 腫瘤易感症候群</text>
<rect x="66" y="3828.8" width="488" height="88" rx="14" fill="#FFFFFF"/>
<text x="82" y="3854.8" font-size="16.5" fill="#96790F" font-weight="800">SUFU</text>
<text x="82" y="3881.8" font-size="14.5" fill="#345963">SUFU 家族性腦膜瘤易感</text>
<rect x="66" y="3932.8" width="488" height="88" rx="14" fill="#FFFFFF"/>
<text x="82" y="3958.8" font-size="16.5" fill="#96790F" font-weight="800">SMARCE1</text>
<text x="82" y="3985.8" font-size="14.5" fill="#345963">SMARCE1 造成的家族性透明細胞腦膜瘤</text>
<rect x="66" y="4036.8" width="488" height="130" rx="14" fill="#FFFFFF"/>
<text x="82" y="4062.8" font-size="16.5" fill="#B04A4A" font-weight="800">過去的放射線暴露</text>
<text x="82" y="4089.8" font-size="14.5" fill="#345963">最後一句最常被跳過：病史要問清楚過去的放射線暴露，因為腦膜瘤本</text>
<text x="82" y="4110.8" font-size="14.5" fill="#345963">來就是久遠放射暴露後常見的續發腫瘤——放射線引起的腦膜瘤裡，多顆</text>
<text x="82" y="4131.8" font-size="14.5" fill="#345963">的就佔 17.3%</text>
<text x="66" y="4188.8" font-size="15" fill="#345963">國際共識的講法是：跟偶發型比，NF2-SWN 病人發病年齡較輕、更容易</text>
<text x="66" y="4210.8" font-size="15" fill="#345963">長出多顆腦膜瘤，所以這類表現的人應接受生殖系 NF2 與 SMARCE1 變</text>
<text x="66" y="4232.8" font-size="15" fill="#345963">異的篩檢。要不要做、怎麼做是遺傳諮詢門診的事，不是自己去掛號驗。</text>
<g filter="url(#sh)"><rect x="40" y="4292.8" width="540" height="422" rx="18" fill="#FFFFFF"/></g>
<text x="66" y="4326.8" font-size="20" fill="#123641" font-weight="800">鑲嵌型：那個變異只出現在一部分細胞</text>
<circle cx="71" cy="4369.8" r="4.5" fill="#5C77C4"/>
<text x="86" y="4374.8" font-size="15" fill="#345963">1,055 位沒有上一代家族史的新發個案裡，確診或推定鑲嵌型的有 232</text>
<text x="86" y="4396.8" font-size="15" fill="#345963">人（22.0%）</text>
<circle cx="71" cy="4421.8" r="4.5" fill="#5C77C4"/>
<text x="86" y="4426.8" font-size="15" fill="#345963">因為非鑲嵌型的變異偵測率本身只有 36.7%，作者推算整體的鑲嵌比例</text>
<text x="86" y="4448.8" font-size="15" fill="#345963">可能高達 59.7%</text>
<circle cx="71" cy="4473.8" r="4.5" fill="#5C77C4"/>
<text x="86" y="4478.8" font-size="15" fill="#345963">這比例還隨發病年齡大幅變化：20 歲以前以雙側聽神經瘤表現的人是</text>
<text x="86" y="4500.8" font-size="15" fill="#345963">21.7%，60 歲以上是 80.7%</text>
<circle cx="71" cy="4525.8" r="4.5" fill="#5C77C4"/>
<text x="86" y="4530.8" font-size="15" fill="#345963">鑲嵌型的病人本人仍然可能病得很重，需要完整的臨床監測與介入</text>
<circle cx="71" cy="4555.8" r="4.5" fill="#5C77C4"/>
<text x="86" y="4560.8" font-size="15" fill="#345963">檢測也不是抽一管血就結束：要驗血液，理想上再驗兩個以上來自神經</text>
<text x="86" y="4582.8" font-size="15" fill="#345963">系統不同區域的相關腫瘤，才分得出是鑲嵌型還是生殖系</text>
<rect x="66" y="4622.8" width="488" height="76.0" rx="14" fill="#F6E2E0" stroke="#B04A4A" stroke-width="2.5"/>
<circle cx="98" cy="4656.8" r="16" fill="#FFFFFF" stroke="#B04A4A" stroke-width="2.4"/>
<line x1="90.32" y1="4649.12" x2="105.68" y2="4664.48" stroke="#B04A4A" stroke-width="2.6" stroke-linecap="round"/>
<line x1="90.32" y1="4664.48" x2="105.68" y2="4649.12" stroke="#B04A4A" stroke-width="2.6" stroke-linecap="round"/>
<text x="128" y="4650.8" font-size="17" fill="#B04A4A" font-weight="800">家屬的再發風險，這張圖不寫百分比——那要由遺傳諮</text>
<text x="128" y="4674.8" font-size="17" fill="#B04A4A" font-weight="800">詢師依你的檢驗結果算。</text>
<g filter="url(#sh)"><rect x="40" y="4740.8" width="540" height="490" rx="18" fill="#FFFFFF"/></g>
<text x="66" y="4774.8" font-size="20" fill="#123641" font-weight="800">台灣端：查得到的與查不到的</text>
<rect x="66" y="4810.8" width="488" height="139" rx="14" fill="#F7F1E4"/>
<rect x="82" y="4828.8" width="61" height="23" rx="11.5" fill="#00806B"/>
<text x="93" y="4844.98" font-size="13" fill="#FFFFFF" font-weight="800">查得到</text>
<text x="82" y="4872.8" font-size="14.5" fill="#345963">健保條文裡有「遺傳諮詢中心」這個角色——25021B「染色體檢查（特</text>
<text x="82" y="4893.8" font-size="14.5" fill="#345963">殊）」的規範逐字寫著限衛生福利部認證之遺傳諮詢中心申請實施、作</text>
<text x="82" y="4914.8" font-size="14.5" fill="#345963">為一般性篩檢者非屬給付範圍</text>
<rect x="66" y="4967.8" width="488" height="160" rx="14" fill="#F7F1E4"/>
<rect x="82" y="4985.8" width="61" height="23" rx="11.5" fill="#B04A4A"/>
<text x="93" y="5001.98" font-size="13" fill="#FFFFFF" font-weight="800">查不到</text>
<text x="82" y="5029.8" font-size="14.5" fill="#345963">全表裡沒有任何以 NF2 或神經纖維瘤命名的檢測項目；NF2-SWN 在不</text>
<text x="82" y="5050.8" font-size="14.5" fill="#345963">在台灣公告的罕見疾病名單裡，《罕見疾病防治及藥物法》第 3 條寫的</text>
<text x="82" y="5071.8" font-size="14.5" fill="#345963">是由中央主管機關依盛行率基準指定公告——法源查得到，名單取不到，</text>
<text x="82" y="5092.8" font-size="14.5" fill="#345963">請向遺傳諮詢中心確認</text>
<text x="66" y="5149.8" font-size="15.5" fill="#345963">回診前先把家族史寫成一張表：誰有過腦部或脊椎腫瘤、聽力問題、幼</text>
<text x="66" y="5172.8" font-size="15.5" fill="#345963">年白內障——準則裡好幾條要靠它。到了診間問的是「我這個表現需不需</text>
<text x="66" y="5195.8" font-size="15.5" fill="#345963">要轉遺傳諮詢」，而不是自己先去驗。</text>
<text x="40" y="5248.8" font-size="15" fill="#527078">示意圖，依 2022 年國際共識（Plotkin 2022）、Evans 2025、Sheppard 2026</text>
<text x="40" y="5271.3" font-size="15" fill="#527078">統合分析、國際腦膜瘤共識（Nassiri 2024）、Alliance A071401（Brastianos</text>
<text x="40" y="5293.8" font-size="15" fill="#527078">2023）、Blakeley 2016、Plotkin 2019、Screnci 2024、Plotkin 2023、</text>
<text x="40" y="5316.3" font-size="15" fill="#527078">Evans 2020、Krzemińska 2026、EANO 2020 指引與健保支付標準條文重繪，</text>
<text x="40" y="5338.8" font-size="15" fill="#527078">非擷取自原論文圖表；各研究族群、設計與終點不同，數點不可直接互比。</text>
  </g>
</svg>
